<?xml version="1.0" encoding="utf-8"?>
<!-- Generator: Adobe Illustrator 21.1.0, SVG Export Plug-In . SVG Version: 6.00 Build 0)  -->
<svg version="1.1" xmlns="http://www.w3.org/2000/svg" xmlns:xlink="http://www.w3.org/1999/xlink" x="0px" y="0px"
	 viewBox="0 0 512 512" style="enable-background:new 0 0 512 512;" xml:space="preserve">
<style type="text/css">
	.st0{display:none;}
	.st1{display:inline;fill:#EC1518;}
	.st2{display:inline;fill:#C10C1E;}
	.st3{display:inline;}
	.st4{fill:#D6121C;}
	.st5{fill:#F97B76;}
	.st6{fill:#BE3A2B;}
	.st7{fill:#922C25;}
	.st8{fill:#559E62;}
	.st9{fill:#FFBD00;}
	.st10{fill:#FF9811;}
	.st11{fill:#FFFFFF;}
	.st12{fill:#95156E;}
	.st13{fill:#6DA83C;}
	.st14{fill:#EDBB2C;}
</style>
<g id="Capa_1" class="st0">
	<path class="st1" d="M412.7,471.9c0,0-42.8-45.7-67.9-50.9l-55.4,50.9l-29.6-237.3l-3.8-30.3l-3.8,30.3l-29.7,237.3L167.2,421
		c-25.1,5.2-67.9,50.9-67.9,50.9c-15.5-61.4,22.4-152.2,48.9-205.1c12.8-25.6,22.9-42.3,22.9-42.3l19.5-79.9h130.9l19.5,79.9
		c0,0,10.1,16.7,22.9,42.3C390.3,319.7,428.2,410.5,412.7,471.9z"/>
	<path class="st2" d="M340.9,224.6l-19.5-79.9H212.5h-21.9l-19.5,79.9c0,0-0.4,0.6-1,1.7c-0.3,0.6-0.7,1.3-1.2,2.1
		c-0.6,1.1-1.4,2.4-2.3,4c-1.1,1.9-2.4,4.2-3.8,6.7c-0.3,0.5-0.6,1-0.9,1.6c-2.1,3.7-4.4,8.1-6.9,12.9c-0.7,1.4-1.5,2.8-2.2,4.2
		c-0.8,1.5-1.5,2.9-2.3,4.5c-0.8,1.5-1.6,3.1-2.4,4.7c-26.4,52.8-64.3,143.7-48.9,205.1c0,0,7.9-8.4,18.9-18.5
		c-5.3-60,28-138.9,51.9-186.6c0,0,0-0.1,0-0.1c2.9-5.8,7.7-10.4,13.7-13c3.6-1.6,6.9-3.2,9.9-4.7c9.7-4.8,19.8-8.4,30.3-10.9
		c9.2-2.1,18.7-3.3,28.2-3.6l3.8-30.3l3.8,30.3c20.3,0.5,40.3,5.4,58.5,14.5c11.6,5.8,27,12.3,45.6,17.8
		C351,241.2,340.9,224.6,340.9,224.6z"/>
	<path class="st1" d="M512,202.2c0,20.3-19.2,48-94.9,40.5c-52.9-5.2-92.3-23.9-111.2-34.8c-8.2-4.7-12.5-7.9-12.5-7.9h-74.7
		c0,0-48,35.2-123.7,42.7C19.2,250.2,0,222.5,0,202.2c0-20.3,12.8-48,12.8-76.8S3.2,91.3,3.2,75.3s26.7-35.2,74.7-35.2
		s101.9,12.3,140.8,51.2h12.5l62.1,0c4-4,8.2-7.8,12.5-11.2c37.5-30.1,85.2-40,128.3-40c48,0,74.7,19.2,74.7,35.2
		c0,16-9.6,21.3-9.6,50.1S512,182,512,202.2z"/>
	<g class="st3">
		<path class="st4" d="M84.2,243.6C17.4,247.5,0,221.5,0,202.2c0-20.3,12.8-48,12.8-76.8S3.2,91.3,3.2,75.3s26.7-35.2,74.7-35.2
			c4.6,0,9.3,0.1,14.1,0.4c-41,2.7-63.6,20.1-63.6,34.8c0,16,9.6,21.3,9.6,50.1S25.1,182,25.1,202.2C25.1,218.8,38,240.4,84.2,243.6
			z"/>
		<path class="st4" d="M305.9,80.1V208c-8.2-4.7-12.5-7.9-12.5-7.9h-62.1V91.3l62.1,0C297.4,87.3,301.5,83.5,305.9,80.1z"/>
	</g>
	<path class="st1" d="M280.2,84.9H256h-24.2c-7.3,0-13.1,5.9-13.1,13.1v93.2c0,7.3,5.9,13.1,13.1,13.1h48.4
		c7.3,0,13.1-5.9,13.1-13.1V98C293.3,90.8,287.5,84.9,280.2,84.9z"/>
	<g class="st3">
		<path class="st4" d="M245.8,191.2V98c0-7.3,5.9-13.1,13.1-13.1h-3h-24.2c-7.3,0-13.1,5.9-13.1,13.1v93.2c0,7.3,5.9,13.1,13.1,13.1
			H259C251.7,204.4,245.8,198.5,245.8,191.2z"/>
		<path class="st4" d="M111.5,176.5c43.6,0,79-14.3,79-31.9s-35.4-31.9-79-31.9l0,0C135.4,127.3,135.4,162,111.5,176.5L111.5,176.5z
			"/>
		<path class="st4" d="M400.5,176.5c-43.6,0-79-14.3-79-31.9s35.4-31.9,79-31.9l0,0C376.5,127.3,376.5,162,400.5,176.5L400.5,176.5z
			"/>
	</g>
</g>
<g id="Capa_3" class="st0">
	<g class="st3">
		<path class="st5" d="M297.2,78.6c0,25.1-20.5,45.5-45.7,45.5c-25.2,0-45.7-20.4-45.7-45.5s20.5-45.5,45.7-45.5
			C276.7,33.1,297.2,53.5,297.2,78.6"/>
		<g>
			<path class="st6" d="M205.8,78.6c0-19.7,12.6-36.3,30.2-42.6c-14.4-12.2-54.9-27.6-85.3-30c-7.9-0.6-15.6,2.6-20.5,8.8
				c-6.3,8.1-10.6,22.4,2.5,45.5c0,0,9.1,15.2,9.1,54.6c0,0-1.1,19.7,21.9,25.6c1.7,0.4,4.2,0.7,7.2,0.9c18.4,1.1,36.7-3.3,53-11.9
				l14.3-7.6C219.6,116.3,205.8,99.2,205.8,78.6"/>
			<path class="st6" d="M297.2,78.6c0-19.7-12.6-36.3-30.2-42.6c14.4-12.2,54.9-27.6,85.3-30c7.9-0.6,15.6,2.6,20.5,8.8
				c6.3,8.1,10.6,22.4-2.5,45.5c0,0-9.1,15.2-9.1,54.6c0,0,1.1,19.7-21.9,25.6c-1.7,0.4-4.2,0.7-7.2,0.9c-18.4,1.1-36.7-3.3-53-11.9
				l-14.3-7.6C283.4,116.3,297.2,99.2,297.2,78.6"/>
		</g>
		<g>
			<path class="st7" d="M251.5,124.1c-4.6,0-9-0.9-13.2-2.1l-14.3,7.6c-14,7.4-29.5,11.4-45.2,11.8l-0.1,0.3L151.4,197l45.5-18.2
				l9.1,45.5l45.5-91.1L251.5,124.1L251.5,124.1z"/>
			<path class="st7" d="M251.5,124.1c4.6,0,9-0.9,13.2-2.1l14.3,7.6c14,7.4,29.5,11.4,45.2,11.8l0.1,0.3l27.3,55.3l-45.5-18.2
				l-9.1,45.5l-45.5-91L251.5,124.1L251.5,124.1z"/>
		</g>
		<path class="st8" d="M468.1,298.1c26.5-9.5,26.5-47.6,0-57c23.1-16,13.3-52.8-14.8-55.1c18.2-21.5-0.8-54.4-28.5-49.4
			c12-25.4-14.9-52.3-40.3-40.3c2.6-14.4-5.1-26.4-16-32.1c-2.7,6.7-7.3,22.4-7.3,50.7c0,0,1.1,19.7-22,25.7
			c-1.7,0.4-4.2,0.7-7.2,0.9c-2.6,0.1-5.2-0.1-7.8-0.1l0.1,0.3l2.8,5.5c12.2,10.9,31.7,13.6,46.7,0.2c-24,26.8,3.5,68,37.5,56.1
			c-32.4,15.6-22.8,64.1,13.2,66.1c-35.9,2-45.6,50.5-13.2,66.1c-34-11.9-61.5,29.2-37.5,56.1c-26.8-24-68,3.5-56.1,37.5
			c-15.6-32.4-64.1-22.8-66.1,13.2c-2-35.9-50.5-45.6-66.1-13.2c11.9-34-29.3-61.5-56.1-37.5c24-26.8-3.5-68-37.5-56.1
			c32.4-15.6,22.8-64.1-13.2-66.1c35.9-2,45.6-50.5,13.2-66.1c34,11.9,61.5-29.3,37.5-56.1c15,13.4,34.5,10.7,46.7-0.2l2.8-5.5
			l0.1-0.3c-2.6,0.1-5.2,0.3-7.8,0.1c-3-0.2-5.6-0.5-7.2-0.9c-23-5.9-21.9-25.7-21.9-25.7c0-28.3-4.7-44.1-7.4-50.7
			c-11,5.7-18.6,17.7-16,32.1c-25.4-12-52.4,14.9-40.3,40.3c-27.7-5-46.7,27.9-28.5,49.4c-28,2.3-37.9,39.1-14.8,55.1
			c-26.5,9.5-26.5,47.6,0,57c-23.1,16-13.3,52.8,14.8,55.1c-18.2,21.5,0.8,54.4,28.5,49.4C66.1,428.1,93,455,118.5,443
			c-5,27.7,27.9,46.7,49.4,28.5c2.3,28,39.1,37.9,55.1,14.8c9.5,26.5,47.6,26.5,57,0c16,23.1,52.8,13.3,55.1-14.8
			c21.5,18.2,54.4-0.8,49.4-28.5c25.4,12,52.4-14.9,40.3-40.3c27.7,5,46.7-27.9,28.5-49.4C481.4,350.9,491.3,314.2,468.1,298.1"/>
	</g>
</g>
<g id="Capa_4">
	<g id="XMLID_6_">
		<path id="XMLID_904_" class="st9" d="M182,215c0-40.8,33.1-73.8,73.8-73.9c0-2.2,0-4.1,0-5.8C255.8,69.5,202.3,16,136.4,16
			S17,69.5,17,135.4c0,65.9,53.5,119.4,119.4,119.4c6.7,0,14.4,0,22.6,0L72,452.3l67.4-26.2l26.2,67.4l90.1-204.7
			C215,288.9,182,255.8,182,215z M85.2,135.4c0-28.2,23-51.2,51.2-51.2s51.2,23,51.2,51.2v51.2h-51.2
			C108.2,186.6,85.2,163.6,85.2,135.4z"/>
		<path id="XMLID_907_" class="st10" d="M494.6,135.4C494.6,69.5,441.1,16,375.2,16S255.8,69.5,255.8,135.4c0,1.6,0,3.6,0,5.8
			c-40.8,0-73.8,33.1-73.8,73.9s33,73.8,73.8,73.9c0,0,0,0,0,0l90.1,204.7l26.2-67.4l67.4,26.2l-87-197.5c8.2,0,15.9,0,22.6,0
			C441.1,254.8,494.6,201.3,494.6,135.4z M255.8,288.9V141.2c30.7,0,57,18.7,68.2,45.4v-51.2c0-28.2,23-51.2,51.2-51.2
			s51.2,23,51.2,51.2s-23,51.2-51.2,51.2H324c3.7,8.8,5.7,18.4,5.7,28.5C329.7,255.8,296.6,288.9,255.8,288.9z"/>
		<g>
			<path id="XMLID_910_" class="st11" d="M329.7,215c0-10.1-2-19.7-5.7-28.5c0,0,0,0,0,0c-11.1-26.7-37.5-45.4-68.2-45.4v147.7
				C296.6,288.9,329.7,255.8,329.7,215z"/>
			<path id="XMLID_1_" class="st11" d="M255.8,288.9V141.2c-30.7,0-57,18.7-68.2,45.4c0,0,0,0,0,0C184,195.3,182,205,182,215
				C182,255.8,215,288.9,255.8,288.9z"/>
		</g>
	</g>
</g>
<g id="Capa_2" class="st0">
	<g class="st3">
		<g>
			<g>
				<g>
					<path class="st12" d="M270.8,208.6l-17,17l10.8,10.8l27.9-27.9L270.8,208.6z M258.2,225.6l13.9-13.9l13,0l-20.4,20.4
						L258.2,225.6z"/>
				</g>
			</g>
			<g>
				<g>
					<path class="st13" d="M264.6,232.7l-10.8,10.8l17,17l21.7,0L264.6,232.7z M258.1,243.5l6.5-6.5l20.4,20.4l-13,0L258.1,243.5z"
						/>
				</g>
			</g>
			<g>
				<g>
					<g>
						<path class="st14" d="M240.8,208.6l-21.7,0l25.9,25.9l-26,26l21.7,0l26-26L240.8,208.6z M239.5,257.4l-13,0l22.9-22.9
							l-22.9-22.9l13,0l22.9,22.9L239.5,257.4z"/>
					</g>
				</g>
			</g>
		</g>
	</g>
</g>
<g id="Capa_5">
	<g>
		<g>
			<polygon class="st12" points="292.8,186.1 276.3,186.1 258.8,203.7 267,211.9 			"/>
		</g>
		<g>
			<polygon class="st13" points="258.7,226.4 276.3,244 292.7,243.9 267,218.2 			"/>
		</g>
		<g>
			<polygon class="st14" points="235.3,186.1 218.9,186.1 247.8,215 218.8,244 235.3,243.9 264.2,215 			"/>
		</g>
	</g>
</g>
</svg>
