<?xml version="1.0" encoding="utf-8"?>
<!-- Generator: Adobe Illustrator 21.1.0, SVG Export Plug-In . SVG Version: 6.00 Build 0)  -->
<svg version="1.1" id="Capa_1" xmlns="http://www.w3.org/2000/svg" xmlns:xlink="http://www.w3.org/1999/xlink" x="0px" y="0px"
	 viewBox="0 0 46.1 36.1" style="enable-background:new 0 0 46.1 36.1;" xml:space="preserve">
<style type="text/css">
	.st0{opacity:5.000000e-02;}
	.st1{fill:#95156E;}
	.st2{fill:#6DA83C;}
	.st3{fill:#EDBB2C;}
</style>
<g class="st0">
	<g>
		<polygon class="st1" points="46.2,0 35.9,0 24.9,11 30.1,16.1 		"/>
	</g>
	<g>
		<polygon class="st2" points="24.9,25.1 35.9,36.1 46.1,36.1 30,20 		"/>
	</g>
	<g>
		<polygon class="st3" points="10.3,0 0,0 18.1,18 0,36.1 10.3,36.1 28.3,18 		"/>
	</g>
</g>
<g class="st0">
	<g>
		<polygon class="st1" points="46.2,0 35.9,0 24.9,11 30.1,16.1 		"/>
	</g>
	<g>
		<polygon class="st2" points="24.9,25.1 35.9,36.1 46.1,36.1 30,20 		"/>
	</g>
	<g>
		<polygon class="st3" points="10.3,0 0,0 18.1,18 0,36.1 10.3,36.1 28.3,18 		"/>
	</g>
</g>
<g class="st0">
	<g>
		<polygon class="st1" points="28.3,0 18,0 7.1,11 12.2,16.1 		"/>
	</g>
	<g>
		<polygon class="st2" points="7.1,25.1 18,36.1 28.3,36.1 12.2,20 		"/>
	</g>
	<g>
		<polygon class="st3" points="-7.6,0 -17.8,0 0.2,18 -17.9,36.1 -7.6,36.1 10.5,18 		"/>
	</g>
</g>
<g class="st0">
	<g>
		<polygon class="st1" points="66.2,0 55.9,0 45,11 50.1,16.1 		"/>
	</g>
	<g>
		<polygon class="st2" points="44.9,25.1 55.9,36.1 66.1,36.1 50.1,20 		"/>
	</g>
	<g>
		<polygon class="st3" points="30.3,0 20.1,0 38.1,18 20,36.1 30.3,36.1 48.3,18 		"/>
	</g>
</g>
</svg>
